<?xml version="1.0" standalone="no"?>
<!DOCTYPE svg PUBLIC "-//W3C//DTD SVG 20010904//EN"
 "http://www.w3.org/TR/2001/REC-SVG-20010904/DTD/svg10.dtd">
<svg version="1.0" xmlns="http://www.w3.org/2000/svg"
 width="3375.000000pt" height="3375.000000pt" viewBox="0 0 3375.000000 3375.000000"
 preserveAspectRatio="xMidYMid meet">

<g transform="translate(0.000000,3375.000000) scale(0.100000,-0.100000)"
fill="#000000" stroke="none">
<path d="M7010 26070 l0 -630 265 0 265 0 0 -490 0 -490 -266 0 -266 0 7
-8088 c5 -4449 5 -8105 1 -8126 -10 -53 -66 -110 -134 -138 -56 -23 -62 -23
-617 -28 l-560 -5 -3 -617 -2 -618 802 0 c470 0 851 4 918 10 359 33 589 126
745 302 25 30 69 100 98 160 l52 107 8518 1 8517 0 0 -290 0 -290 670 0 670 0
0 640 0 640 -240 0 -240 0 0 410 0 410 240 0 240 0 0 2670 0 2670 -240 0 -240
0 0 1439 0 1439 43 22 c206 106 336 297 395 578 15 70 16 383 19 3395 l3 3317
-230 0 -230 0 0 415 0 415 230 0 230 0 0 640 0 640 -667 -2 -668 -3 -3 -247
-2 -248 -8490 0 -8490 0 0 310 0 310 -670 0 -670 0 0 -630z m18320 -510 l0
-260 305 0 305 0 0 -415 0 -415 -305 0 -305 0 -2 -3002 c-3 -2907 -4 -3004
-22 -3038 -33 -63 -77 -99 -146 -123 -63 -21 -79 -22 -612 -25 l-548 -3 0
-625 0 -626 848 5 c524 3 878 9 927 16 44 6 99 13 123 17 l42 6 0 -1396 0
-1396 -295 0 -295 0 0 -2670 0 -2670 295 0 295 0 0 -410 0 -410 -295 0 -295 0
0 -220 0 -220 -8507 0 -8506 0 7 8390 8 8390 -276 0 -276 0 0 490 0 490 275 0
275 0 0 190 0 190 8490 0 8490 0 0 -260z"/>
<path d="M9263 22193 l3 -2278 21 -85 c59 -236 149 -381 305 -490 121 -85 266
-136 493 -173 130 -21 137 -21 2318 -24 l2187 -4 -2 2663 -3 2663 -662 3 -663
2 0 -2035 0 -2036 -1217 3 c-1120 3 -1222 5 -1269 21 -94 31 -147 82 -176 166
-10 28 -13 456 -16 1959 l-2 1922 -660 0 -660 0 3 -2277z"/>
<path d="M15637 24463 c-4 -3 -7 -1203 -7 -2665 l0 -2658 665 0 665 0 0 2035
0 2035 665 0 665 0 0 630 0 630 -1323 0 c-728 0 -1327 -3 -1330 -7z"/>
<path d="M19020 23840 l0 -630 1813 0 c996 -1 1844 -5 1882 -9 134 -16 198
-45 242 -110 41 -61 46 -96 50 -378 l5 -272 -1504 -4 c-1337 -3 -1517 -6
-1628 -21 -500 -67 -738 -259 -836 -676 -16 -68 -18 -154 -21 -875 -3 -522 0
-834 7 -899 50 -468 297 -719 781 -791 214 -33 353 -35 2437 -35 l2103 0 -4
2243 c-2 2055 -4 2250 -20 2333 -34 185 -86 309 -175 420 -162 201 -416 298
-852 324 -100 6 -977 10 -2222 10 l-2058 0 0 -630z m3990 -3050 l0 -390 -1147
0 c-723 0 -1181 4 -1238 10 -153 18 -228 68 -260 174 -35 115 -27 374 14 455
36 70 117 117 231 135 14 2 559 4 1213 5 l1187 1 0 -390z"/>
<path d="M20267 16082 c15 -27 183 -313 373 -635 l345 -586 860 -1 860 0 345
587 c190 322 358 608 373 635 l29 48 -648 -2 -647 -3 -151 -258 c-83 -141
-155 -258 -160 -260 -4 -1 -77 115 -160 258 l-153 260 -647 3 -648 2 29 -48z"/>
<path d="M9250 12058 c0 -1910 2 -2195 15 -2277 66 -402 296 -623 725 -695
202 -34 357 -36 2408 -36 l2042 0 0 2595 0 2595 -650 0 -650 0 0 -1980 0
-1980 -1162 0 c-1002 0 -1172 2 -1227 15 -81 20 -130 47 -159 90 -55 79 -52
-21 -52 1992 l0 1863 -645 0 -645 0 0 -2182z"/>
<path d="M15710 11645 l0 -2595 645 0 645 0 0 1980 0 1980 650 0 650 0 0 615
0 615 -1295 0 -1295 0 0 -2595z"/>
<path d="M20175 14229 c-328 -32 -521 -106 -676 -259 -72 -71 -94 -100 -133
-180 -52 -107 -81 -212 -97 -345 -7 -60 -9 -680 -7 -1855 l4 -1765 22 -98 c78
-340 264 -530 605 -618 215 -55 114 -53 2425 -56 l2132 -4 0 616 0 615 -1807
0 c-1976 0 -1902 -2 -1988 57 -27 19 -50 48 -70 88 l-30 60 0 1150 c0 1253 -2
1208 57 1279 37 45 86 71 163 85 41 8 604 11 1867 11 l1808 0 0 615 0 615
-2092 -1 c-1151 -1 -2133 -6 -2183 -10z"/>
</g>
</svg>
