<?xml version="1.0" encoding="UTF-8"?>
<svg version="1.1" xmlns="http://www.w3.org/2000/svg" width="3375" height="3375">
<path d="M0 0 C44.22 0 88.44 0 134 0 C134 16.5 134 33 134 50 C696.98 50 1259.96 50 1840 50 C1840 33.5 1840 17 1840 0 C1884.22 0 1928.44 0 1974 0 C1974 41.58 1974 83.16 1974 126 C1956.51 126 1939.02 126 1921 126 C1921 154.05 1921 182.1 1921 211 C1938.49 211 1955.98 211 1974 211 C1974.05074565 273.13515742 1974.09913894 335.27031459 1974.12702942 397.40548706 C1974.12744359 398.3258279 1974.12785776 399.24616873 1974.12828448 400.19439868 C1974.13726423 420.19824879 1974.14557463 440.20209912 1974.15319599 460.20594979 C1974.15693784 470.01653168 1974.16082752 479.82711351 1974.16479492 489.63769531 C1974.1651872 490.61394058 1974.16557948 491.59018584 1974.16598364 492.5960143 C1974.17875646 524.21093295 1974.201282 555.82583546 1974.22889166 587.44074435 C1974.25722411 619.94250049 1974.27566437 652.4442477 1974.28174497 684.94601597 C1974.28260937 689.5418394 1974.28358628 694.13766279 1974.28463173 698.73348618 C1974.284834 699.63796643 1974.28503627 700.54244669 1974.28524467 701.47433544 C1974.28878304 716.00515507 1974.30267887 730.53594702 1974.3204961 745.06675537 C1974.33820704 759.69257022 1974.34489165 774.31835776 1974.34050413 788.94418295 C1974.33823093 797.62233216 1974.3442288 806.30038107 1974.36239263 814.97851208 C1974.37372212 820.79119669 1974.37393549 826.60381635 1974.36549544 832.41650562 C1974.36100778 835.71850249 1974.36269064 839.02015959 1974.37464955 842.32215966 C1974.47296841 871.16477973 1973.10649653 903.71977486 1952.10546875 926.06640625 C1945.31948595 932.29843127 1937.94802301 937.9037806 1929.70703125 942.0625 C1927.81632647 942.99740629 1927.81632647 942.99740629 1926 945 C1926.66 945 1927.32 945 1928 945 C1928 945.99 1928 946.98 1928 948 C1925 950 1925 950 1921 950 C1921 1043.72 1921 1137.44 1921 1234 C1938.49 1234 1955.98 1234 1974 1234 C1974 1410.22 1974 1586.44 1974 1768 C1956.51 1768 1939.02 1768 1921 1768 C1921 1791.76 1921 1815.52 1921 1840 C1938.82 1840 1956.64 1840 1975 1840 C1975 1882.24 1975 1924.48 1975 1968 C1930.78 1968 1886.56 1968 1841 1968 C1841 1950.84 1841 1933.68 1841 1916 C1276.37 1916 711.74 1916 130 1916 C129.67 1917.98 129.34 1919.96 129 1922 C121.46523997 1940.43286223 108.23723895 1954.70792206 90 1963 C57.38065518 1976.28663186 21.95126376 1975.16294118 -12.62056565 1975.10139394 C-16.79649579 1975.09505287 -20.972427 1975.09454824 -25.14836121 1975.09336853 C-33.02063819 1975.0902864 -40.89290093 1975.08211601 -48.76517171 1975.07201904 C-59.42802352 1975.0586459 -70.09087934 1975.05333275 -80.75373745 1975.04751682 C-97.50250225 1975.03817325 -114.25123704 1975.01823381 -131 1975 C-131 1933.75 -131 1892.5 -131 1850 C-78.8125 1849.6875 -78.8125 1849.6875 -62.40161133 1849.61206055 C-57.50000735 1849.57544872 -57.50000735 1849.57544872 -52.59843445 1849.5349884 C-50.43403866 1849.51895584 -48.26959596 1849.50858893 -46.10514832 1849.50288391 C-23.03532294 1850.05312974 -23.03532294 1850.05312974 -3.38296278 1839.56107741 C0.20238967 1835.14984868 -0.31126443 1830.28576038 -0.37259549 1824.83526146 C-0.36551063 1823.69914855 -0.35842577 1822.56303563 -0.35112622 1821.39249505 C-0.33648135 1818.22839404 -0.34430162 1815.06525429 -0.36144365 1811.90119482 C-0.37461282 1808.4502695 -0.35872677 1804.99945752 -0.34654471 1801.54854548 C-0.32912611 1795.47366206 -0.33037791 1789.39900104 -0.34362926 1783.3241104 C-0.36336732 1774.22990283 -0.35429048 1765.13588052 -0.33949784 1756.04167169 C-0.31512855 1740.54433251 -0.31448013 1725.04707262 -0.32659721 1709.54972267 C-0.33878423 1693.83946637 -0.34010247 1678.1292653 -0.32806015 1662.41900826 C-0.32730675 1661.42768224 -0.32655335 1660.43635622 -0.32577711 1659.41499002 C-0.32188535 1654.36044408 -0.31781583 1649.3058983 -0.31368351 1644.25135256 C-0.2841173 1607.64164376 -0.27875144 1571.0319633 -0.28615379 1534.42224503 C-0.29341518 1498.15981258 -0.29035972 1461.89740498 -0.27343178 1425.63497543 C-0.27291103 1424.50937071 -0.27239028 1423.38376598 -0.27185376 1422.22405202 C-0.26709213 1411.94359234 -0.26220309 1401.66313273 -0.25716115 1391.38267319 C-0.24462826 1365.82504643 -0.23369372 1340.26741912 -0.22384357 1314.70979118 C-0.22339371 1313.54587189 -0.22294384 1312.38195259 -0.22248034 1311.18276301 C-0.20072917 1254.54599654 -0.19739205 1197.90923096 -0.19555664 1141.27246094 C-0.19490937 1121.6148885 -0.19418076 1101.95731607 -0.19311523 1082.29974365 C-0.19304923 1081.08060167 -0.19298323 1079.86145968 -0.19291523 1078.605374 C-0.18973629 1021.94493933 -0.17348792 965.28451062 -0.1538619 908.62407954 C-0.15258822 904.94625649 -0.15132017 901.26843343 -0.15005327 897.59061038 C-0.14164855 873.21776315 -0.13301843 848.844916 -0.12423737 824.47206891 C-0.10676678 775.97493762 -0.0906207 727.47780591 -0.07538437 678.98067387 C-0.07465875 676.67104303 -0.07393219 674.36141219 -0.07320471 672.05178134 C-0.04045717 568.05942489 -0.0231188 464.06706791 -0.01245117 360.07470703 C-0.01235117 359.10083296 -0.01225117 358.1269589 -0.01214814 357.1235735 C-0.00860993 322.58349535 -0.00540224 288.04341717 -0.00286263 253.50333893 C-0.00281185 252.81287807 -0.00276107 252.12241721 -0.00270876 251.4110333 C-0.00172473 237.94068887 -0.0008768 224.47034444 0 211 C17.82 211 35.64 211 54 211 C54 182.95 54 154.9 54 126 C36.18 126 18.36 126 0 126 C0 84.42 0 42.84 0 0 Z M134 76 C134 92.5 134 109 134 126 C116.18 126 98.36 126 80 126 C80 154.05 80 182.1 80 211 C97.82 211 115.64 211 134 211 C134 765.07 134 1319.14 134 1890 C697.31 1890 1260.62 1890 1841 1890 C1841 1873.5 1841 1857 1841 1840 C1858.49 1840 1875.98 1840 1894 1840 C1894 1816.24 1894 1792.48 1894 1768 C1876.18 1768 1858.36 1768 1840 1768 C1840 1591.78 1840 1415.56 1840 1234 C1857.82 1234 1875.64 1234 1894 1234 C1894 1140.94 1894 1047.88 1894 952 C1882.12 952.66 1870.24 953.32 1858 954 C1848.20800928 954.18634289 1838.4285355 954.36460405 1828.6366806 954.39665604 C1824.14747247 954.41346324 1819.6583862 954.44264376 1815.16925049 954.4727478 C1808.09436683 954.51870577 1801.01946849 954.55583817 1793.94451642 954.58942068 C1784.33687752 954.63556972 1774.72932857 954.6961218 1765.12176514 954.75566864 C1750.08122287 954.84852555 1735.04064974 954.92280596 1720 955 C1720 913.75 1720 872.5 1720 830 C1765 830.25 1765 830.25 1779.11328125 830.36035156 C1783.35485254 830.37374422 1783.35485254 830.37374422 1787.59643555 830.3817749 C1789.45910486 830.38784427 1791.32176028 830.40175749 1793.18432617 830.42230225 C1814.04759102 830.91552698 1814.04759102 830.91552698 1832.75 822.875 C1839.21987724 815.87812992 1840.5960519 807.65328494 1840.49219131 798.43033409 C1840.49911438 796.89855523 1840.49911438 796.89855523 1840.50617731 795.33583134 C1840.51674527 791.92197591 1840.49883693 788.50887868 1840.48101807 785.09506226 C1840.48276287 782.61979929 1840.4862661 780.14453705 1840.49137473 777.66927874 C1840.49845019 772.29191501 1840.49313333 766.91477706 1840.4768219 761.53744888 C1840.45263528 753.5416646 1840.45148298 745.54599171 1840.45498985 737.55017751 C1840.46024015 724.09859699 1840.44690002 710.64709518 1840.42292023 697.19553757 C1840.39924231 683.87915024 1840.38385446 670.56279571 1840.37950897 657.24638748 C1840.37923401 656.4180395 1840.37895906 655.58969153 1840.37867576 654.73624209 C1840.37732241 650.52938485 1840.37611688 646.32252758 1840.37496826 642.11567028 C1840.36656932 612.32790502 1840.33962746 582.54018256 1840.30175781 552.75244141 C1840.26501324 523.8162458 1840.23668214 494.88006192 1840.21972656 465.94384766 C1840.21920046 465.05171748 1840.21867435 464.15958731 1840.21813231 463.24042289 C1840.21285817 454.28118602 1840.20775492 445.32194906 1840.20277687 436.36271202 C1840.19263235 418.1121382 1840.18134734 399.86156514 1840.16937256 381.61099243 C1840.1688234 380.77188296 1840.16827424 379.93277348 1840.16770844 379.06823644 C1840.13091331 323.04547212 1840.06661937 267.02273559 1840 211 C1857.82 211 1875.64 211 1894 211 C1894 182.95 1894 154.9 1894 126 C1876.18 126 1858.36 126 1840 126 C1840 109.5 1840 93 1840 76 C1277.02 76 714.04 76 134 76 Z " fill="#000000" transform="translate(700,717)"/>
<path d="M0 0 C54.33688235 -0.0687765 108.67376028 -0.12158471 163.01067766 -0.15319599 C169.43631773 -0.15694778 175.86195771 -0.16083078 182.28759766 -0.16479492 C183.56674194 -0.16558185 184.84588622 -0.16636878 186.16379245 -0.16717956 C206.83265926 -0.18020744 227.50150085 -0.20384675 248.17035274 -0.23145839 C269.40340973 -0.25958563 290.63645357 -0.27619168 311.86952841 -0.28226548 C324.95478718 -0.28636679 338.03997464 -0.2992858 351.12521143 -0.3237494 C360.11747355 -0.33969709 369.1096992 -0.34438008 378.10197441 -0.34050413 C383.27777525 -0.33859654 388.45345213 -0.34136753 393.6292305 -0.35761642 C479.2464393 -0.61285567 479.2464393 -0.61285567 510.30859375 28.13671875 C530.74662379 48.99980314 533.33912542 79.12111637 533.24050903 106.81799316 C533.24138316 108.66733881 533.24313793 110.51668421 533.24568737 112.36602831 C533.25012425 117.40361142 533.24220805 122.44110824 533.23213124 127.47868037 C533.22344582 132.92766598 533.22642049 138.37664723 533.22793579 143.82563782 C533.22898144 153.25172567 533.22273843 162.67778572 533.21146011 172.10386658 C533.1951645 185.73217717 533.18999296 199.36047439 533.18748413 212.98879367 C533.18311339 235.10305101 533.16983843 257.21729369 533.15087891 279.33154297 C533.13248939 300.80582604 533.1183323 322.28010515 533.10986328 343.75439453 C533.10960023 344.41714499 533.10933718 345.07989546 533.10906615 345.76272926 C533.10616726 353.07925927 533.10338363 360.39578931 533.10064721 367.71231937 C533.07993405 422.80822314 533.04472547 477.90411086 533 533 C478.55274531 533.06878351 424.10549505 533.12158825 369.6582054 533.15319599 C363.21883283 533.15694776 356.77946034 533.16083076 350.34008789 533.16479492 C349.05821531 533.16558185 347.77634272 533.16636878 346.45562551 533.16717956 C325.74540186 533.18020578 305.0352034 533.20384417 284.32499465 533.23145839 C263.04786235 533.25959027 241.77074317 533.27619265 220.49359304 533.28226548 C207.38223418 533.28636583 194.27094652 533.29927958 181.15960959 533.3237494 C172.14818435 533.33970284 163.13679549 533.34437881 154.12535717 533.34050413 C148.93930619 533.33859742 143.75337893 533.34135717 138.56735039 533.35761642 C51.88136982 533.6157122 51.88136982 533.6157122 22.46875 505.59765625 C-3.80413494 477.95292764 -1.16089229 437.76333712 -1.16725707 402.46381402 C-1.16797686 400.21291062 -1.17012812 397.96201301 -1.17275429 395.71111107 C-1.18194327 387.82001748 -1.18609663 379.92894056 -1.18530273 372.0378418 C-1.18470104 364.74072568 -1.19528762 357.44368324 -1.2110464 350.14658576 C-1.22420097 343.82494655 -1.22948346 337.50333124 -1.22884732 331.18167847 C-1.22859501 327.43053867 -1.23129715 323.67946487 -1.24202538 319.928339 C-1.3303885 286.68533582 0.03050682 254.20998822 24.14453125 228.63671875 C48.19712895 206.42672772 84.53980825 202.79780834 115.76264954 202.87974548 C116.97840501 202.87889106 118.19416047 202.87803663 119.44675702 202.87715632 C122.7808722 202.87580574 126.11492721 202.8788859 129.44903505 202.88393438 C133.0596105 202.8882876 136.67018438 202.88678903 140.28076172 202.8860321 C146.52294153 202.88550994 152.76511082 202.88862453 159.00728798 202.89426994 C168.03222211 202.90242673 177.0571512 202.90500443 186.08208861 202.90625793 C200.7274988 202.90844191 215.37290339 202.9150842 230.01831055 202.92456055 C244.23771131 202.93375163 258.45711054 202.94082415 272.67651367 202.94506836 C273.55426196 202.94533108 274.43201025 202.94559381 275.33635698 202.94586449 C279.74013974 202.94716961 284.14392251 202.9484333 288.54770529 202.94967639 C325.03180748 202.96002862 361.5159033 202.97762907 398 203 C397.93267773 195.63477055 397.84274632 188.27005851 397.73754883 180.90527344 C397.70442081 178.40305749 397.67635167 175.90076899 397.65356445 173.3984375 C397.61979548 169.78874981 397.56746726 166.17971976 397.51171875 162.5703125 C397.50213387 160.90876633 397.50213387 160.90876633 397.49235535 159.21365356 C397.32519889 150.25932351 396.33813484 141.25342293 389.9375 134.46875 C382.78536148 129.04696758 373.17758829 127.88051682 364.47046185 127.86412811 C363.16679249 127.85927037 361.86312314 127.85441262 360.51994866 127.84940767 C359.08016823 127.84902245 357.64038777 127.84872668 356.2006073 127.84851074 C354.6658396 127.84465911 353.13107295 127.84037134 351.59630758 127.83568525 C347.38181109 127.82406088 343.16732541 127.81856485 338.95281613 127.81405044 C334.40683962 127.8080958 329.86087745 127.79642975 325.31491089 127.78541565 C317.43944362 127.76707388 309.56397602 127.75222554 301.68849754 127.73963928 C290.30077738 127.72134786 278.91307775 127.69668404 267.52537385 127.67026538 C249.0482539 127.62748036 230.57112829 127.58836106 212.09399414 127.55224609 C210.98813138 127.55008329 209.88226862 127.54792049 208.74289487 127.54569215 C199.76683814 127.5281651 190.79078108 127.51081645 181.81472397 127.49348927 C173.96119929 127.47832417 166.10767474 127.46309249 158.25415039 127.44775391 C156.59509997 127.4445156 156.59509997 127.4445156 154.90253337 127.44121188 C136.48877828 127.4051496 118.0750336 127.36520332 99.66129285 127.32245111 C88.2953284 127.29625163 76.92936718 127.27360329 65.56338695 127.25546753 C57.78472615 127.24283491 50.00607773 127.22672193 42.22742965 127.20781839 C37.73319726 127.19702456 33.23897694 127.18791906 28.74473381 127.18312263 C24.63758102 127.17871421 20.53046456 127.16980137 16.42332903 127.15717942 C14.93090626 127.15341993 13.43847804 127.15138125 11.94605055 127.15115923 C9.93080481 127.15062405 7.91556398 127.14345692 5.90033245 127.13587189 C4.77695467 127.13375592 3.65357688 127.13163995 2.49615735 127.12945986 C0 127 0 127 -1 126 C-1.0980628 124.44243086 -1.12631869 122.88041609 -1.12698364 121.31976318 C-1.12980347 120.30750168 -1.13262329 119.29524017 -1.13552856 118.25230408 C-1.13350433 117.13231522 -1.1314801 116.01232635 -1.12939453 114.85839844 C-1.13114685 113.68610184 -1.13289917 112.51380524 -1.13470459 111.3059845 C-1.13836345 108.08059047 -1.1374887 104.85523716 -1.1343255 101.62984371 C-1.13179972 98.2569107 -1.13414027 94.88398048 -1.13571167 91.51104736 C-1.13753373 85.84150705 -1.13512716 80.17197974 -1.13037109 74.50244141 C-1.12493888 67.95133599 -1.1266834 61.40026174 -1.1321975 54.84915709 C-1.13674013 49.22702193 -1.13737322 43.60489613 -1.13475883 37.98275971 C-1.13320104 34.62409851 -1.13298845 31.26545194 -1.13629532 27.90679169 C-1.13883259 24.15756624 -1.13496546 20.40840067 -1.12939453 16.65917969 C-1.13243088 14.99134178 -1.13243088 14.99134178 -1.13552856 13.28981018 C-1.13270874 12.26626938 -1.12988892 11.24272858 -1.12698364 10.18817139 C-1.12660662 9.30178356 -1.12622959 8.41539574 -1.12584114 7.50214767 C-0.9956813 4.91412964 -0.53173878 2.53221488 0 0 Z M139.125 338.6875 C132.07922962 346.63526514 132.53592986 356.84966068 132.625 366.875 C132.61339844 368.17308594 132.60179688 369.47117187 132.58984375 370.80859375 C132.62182631 381.37349775 133.24231349 391.42001903 140.90625 399.34375 C148.96430754 405.71803432 159.12877825 406.13694706 168.97390747 406.55540466 C169.94210926 406.59755897 170.91031105 406.63971328 171.90785229 406.68314499 C182.41174284 407.10630625 192.90671794 407.13339629 203.41748047 407.11352539 C205.55862934 407.11324236 207.69977831 407.11340351 209.84092712 407.1139679 C215.57705346 407.11425135 221.31315829 407.10842861 227.04927969 407.10139394 C233.07233155 407.09508428 239.09538406 407.09455064 245.11843872 407.09336853 C256.48977784 407.09027744 267.86110718 407.08209441 279.23244202 407.07201904 C292.19280104 407.06078838 305.15316056 407.05533004 318.11352324 407.05032361 C344.74235547 407.0399096 371.37117433 407.0215922 398 407 C398 381.26 398 355.52 398 329 C368.68287713 328.95584873 339.36577555 328.91894366 310.04862791 328.89786934 C306.58173495 328.89536815 303.11484207 328.89277948 299.64794922 328.89013672 C298.95779894 328.8896121 298.26764866 328.88908748 297.55658473 328.88854696 C286.40480696 328.87986165 275.25304997 328.86410207 264.10128449 328.84569441 C252.64515083 328.82694308 241.18903397 328.81602179 229.73288453 328.81182301 C223.30379395 328.80922145 216.87475037 328.80312999 210.4456749 328.78853989 C204.38664667 328.77490179 198.32768454 328.77078991 192.26864243 328.77378464 C190.05241537 328.77323725 187.83618595 328.76929712 185.61997223 328.76158905 C160.46526229 327.67741534 160.46526229 327.67741534 139.125 338.6875 Z " fill="#000000" transform="translate(1919,928)"/>
<path d="M0 0 C44.22 0 88.44 0 134 0 C134.02187378 17.3247583 134.02187378 17.3247583 134.04418945 34.99951172 C134.09294735 71.95475244 134.15635658 108.90995502 134.22898628 145.86515623 C134.24025444 151.60541643 134.2513929 157.34567688 134.26245117 163.0859375 C134.2657567 164.80011103 134.2657567 164.80011103 134.269129 166.54891433 C134.30450122 185.05258358 134.32936579 203.55625278 134.35034702 222.0599433 C134.37210965 241.04648701 134.40516451 260.03298684 134.44870156 279.01949322 C134.47521024 290.73513393 134.4929114 302.45071997 134.49934604 314.16638918 C134.50460229 322.20030009 134.52082733 330.23414222 134.54566566 338.26801626 C134.55967241 342.90309854 134.56885452 347.5380577 134.56500816 352.17316246 C134.56159099 356.41989501 134.57200274 360.66636486 134.59323552 364.91304363 C134.59849174 366.44617682 134.59875061 367.97933738 134.59339563 369.51247023 C134.56074828 379.9230065 134.56050336 390.52874919 142.12890625 398.53125 C150.07564258 404.76918916 160.30192459 405.14231033 169.96817017 405.54966736 C170.93622735 405.59167705 171.90428453 405.63368675 172.90167677 405.67696947 C183.43681375 406.10331461 193.96686935 406.17475075 204.50927734 406.20532227 C206.69464096 406.21507054 208.88000283 406.22521761 211.06536293 406.23572445 C216.84455389 406.262435 222.62375222 406.28378709 228.40296936 406.30391693 C233.85370358 406.32374699 239.30441105 406.34855935 244.75512695 406.3729248 C260.62839758 406.44104619 276.50170115 406.5013072 292.375 406.5625 C327.89125 406.706875 363.4075 406.85125 400 407 C400 272.69 400 138.38 400 0 C444.22 0 488.44 0 534 0 C534 175.89 534 351.78 534 533 C463.441875 533.061875 392.88375 533.12375 320.1875 533.1875 C286.80436646 533.22846802 286.80436646 533.22846802 252.74682617 533.27026367 C225.51037598 533.28381348 225.51037598 533.28381348 212.74824524 533.28633118 C203.86024067 533.28911914 194.97229322 533.30008263 186.08430481 533.31672668 C175.81457716 533.33592955 165.54490395 533.34448305 155.27515825 533.34033485 C150.03062946 533.33854076 144.78622206 533.34122643 139.54171598 533.35764539 C52.77354838 533.6159424 52.77354838 533.6159424 23.6015625 505.7890625 C9.20127703 490.35091862 2.82467089 470.82103211 0.90565681 450.17212391 C0.82024171 449.25626152 0.73482661 448.34039913 0.64682318 447.39678334 C-0.15517451 438.19217395 -0.27415078 429.04183209 -0.24050903 419.80851746 C-0.24138422 417.97960533 -0.24314092 416.15069345 -0.24568737 414.32178289 C-0.25010345 409.36390519 -0.2422376 404.40611592 -0.23213124 399.44824946 C-0.22341498 394.07638049 -0.22642263 388.70451566 -0.22793579 383.3326416 C-0.22897952 374.04796881 -0.22275679 364.76332434 -0.21146011 355.47865868 C-0.19513817 342.0549426 -0.18999029 328.63124008 -0.18748413 315.20751516 C-0.18311748 293.4232478 -0.16983646 271.63899551 -0.15087891 249.85473633 C-0.13249335 228.70564855 -0.11834997 207.55656487 -0.10986328 186.4074707 C-0.10933783 185.10169684 -0.10881239 183.79592297 -0.10827102 182.4505802 C-0.10566076 175.89925627 -0.10313339 169.34793231 -0.10064721 162.79660833 C-0.07994682 108.53105884 -0.04309446 54.26553723 0 0 Z " fill="#000000" transform="translate(925,1951)"/>
<path d="M0 0 C44.22 0 88.44 0 134 0 C134.02187378 17.3247583 134.02187378 17.3247583 134.04418945 34.99951172 C134.09294735 71.95475244 134.15635658 108.90995502 134.22898628 145.86515623 C134.24025444 151.60541643 134.2513929 157.34567688 134.26245117 163.0859375 C134.2657567 164.80011103 134.2657567 164.80011103 134.269129 166.54891433 C134.30450122 185.05258358 134.32936579 203.55625278 134.35034702 222.0599433 C134.37210965 241.04648701 134.40516451 260.03298684 134.44870156 279.01949322 C134.47521024 290.73513393 134.4929114 302.45071997 134.49934604 314.16638918 C134.50460229 322.20030009 134.52082733 330.23414222 134.54566566 338.26801626 C134.55967241 342.90309854 134.56885452 347.5380577 134.56500816 352.17316246 C134.56159099 356.41989501 134.57200274 360.66636486 134.59323552 364.91304363 C134.59849174 366.44617682 134.59875061 367.97933738 134.59339563 369.51247023 C134.56074828 379.9230065 134.56050336 390.52874919 142.12890625 398.53125 C150.07564258 404.76918916 160.30192459 405.14231033 169.96817017 405.54966736 C170.93622735 405.59167705 171.90428453 405.63368675 172.90167677 405.67696947 C183.43681375 406.10331461 193.96686935 406.17475075 204.50927734 406.20532227 C206.69464096 406.21507054 208.88000283 406.22521761 211.06536293 406.23572445 C216.84455389 406.262435 222.62375222 406.28378709 228.40296936 406.30391693 C233.85370358 406.32374699 239.30441105 406.34855935 244.75512695 406.3729248 C260.62839758 406.44104619 276.50170115 406.5013072 292.375 406.5625 C327.89125 406.706875 363.4075 406.85125 400 407 C400 272.69 400 138.38 400 0 C444.22 0 488.44 0 534 0 C534 175.89 534 351.78 534 533 C463.441875 533.061875 392.88375 533.12375 320.1875 533.1875 C286.80436646 533.22846802 286.80436646 533.22846802 252.74682617 533.27026367 C225.51037598 533.28381348 225.51037598 533.28381348 212.74824524 533.28633118 C203.86024067 533.28911914 194.97229322 533.30008263 186.08430481 533.31672668 C175.81457716 533.33592955 165.54490395 533.34448305 155.27515825 533.34033485 C150.03062946 533.33854076 144.78622206 533.34122643 139.54171598 533.35764539 C52.77354838 533.6159424 52.77354838 533.6159424 23.6015625 505.7890625 C9.20127703 490.35091862 2.82467089 470.82103211 0.90565681 450.17212391 C0.82024171 449.25626152 0.73482661 448.34039913 0.64682318 447.39678334 C-0.15517451 438.19217395 -0.27415078 429.04183209 -0.24050903 419.80851746 C-0.24138422 417.97960533 -0.24314092 416.15069345 -0.24568737 414.32178289 C-0.25010345 409.36390519 -0.2422376 404.40611592 -0.23213124 399.44824946 C-0.22341498 394.07638049 -0.22642263 388.70451566 -0.22793579 383.3326416 C-0.22897952 374.04796881 -0.22275679 364.76332434 -0.21146011 355.47865868 C-0.19513817 342.0549426 -0.18999029 328.63124008 -0.18748413 315.20751516 C-0.18311748 293.4232478 -0.16983646 271.63899551 -0.15087891 249.85473633 C-0.13249335 228.70564855 -0.11834997 207.55656487 -0.10986328 186.4074707 C-0.10933783 185.10169684 -0.10881239 183.79592297 -0.10827102 182.4505802 C-0.10566076 175.89925627 -0.10313339 169.34793231 -0.10064721 162.79660833 C-0.07994682 108.53105884 -0.04309446 54.26553723 0 0 Z " fill="#000000" transform="translate(925,928)"/>
<path d="M0 0 C1.69845371 -0.00043743 3.39690735 -0.00131548 5.09536064 -0.00258917 C9.70654329 -0.00480045 14.31770224 -0.00085963 18.92888188 0.0041889 C23.92247717 0.00854219 28.91607132 0.00704354 33.90966797 0.00628662 C42.5428613 0.00576446 51.17604702 0.008879 59.80923843 0.01452446 C72.29109957 0.0226813 84.77295706 0.02525896 97.25482057 0.02651245 C117.51004156 0.02869642 137.7652585 0.03533868 158.02047729 0.04481506 C177.68649272 0.05400617 197.35250703 0.06107868 217.01852417 0.06532288 C218.83947193 0.06571696 218.83947193 0.06571696 220.69720651 0.06611901 C226.78783616 0.06742413 232.87846581 0.06868782 238.96909547 0.06993091 C289.42812087 0.0802831 339.88713878 0.09871038 390.34616089 0.12025452 C390.34616089 41.04025452 390.34616089 81.96025452 390.34616089 124.12025452 C374.06034668 124.1421283 374.06034668 124.1421283 357.44552612 124.16444397 C322.67843709 124.21323565 287.91138843 124.27665427 253.14434126 124.3492408 C247.74099295 124.36050852 242.33764439 124.37164704 236.93429565 124.38270569 C235.32077974 124.38601121 235.32077974 124.38601121 233.67466754 124.38938352 C216.27368605 124.42472414 198.87270459 124.44960653 181.47170054 124.47060154 C163.60723342 124.49238937 145.74281273 124.5254681 127.87838513 124.56895608 C116.86139879 124.59542141 105.84447028 124.61315446 94.82745374 124.61960056 C87.26539425 124.62487012 79.70340742 124.64113958 72.14138692 124.66592018 C67.78314479 124.67988154 63.4250326 124.68912615 59.06676674 124.68526268 C55.06710691 124.68182483 51.06772345 124.69237424 47.06812013 124.71349003 C45.63045637 124.71871083 44.19276354 124.71904315 42.75510042 124.71365014 C30.94208358 124.67389263 18.12185788 124.77412337 8.34616089 132.12025452 C1.98219104 138.66605208 0.89823846 146.07728867 0.95848083 154.78465271 C0.9530953 155.72773305 0.94770976 156.67081338 0.94216102 157.64247191 C0.92791099 160.78673075 0.93497798 163.93056683 0.94210815 167.07484436 C0.93640303 169.33563575 0.92943822 171.59642427 0.92131042 173.85720825 C0.90337912 179.98741734 0.90454748 186.11748328 0.91025281 192.2477107 C0.91334487 197.36944152 0.90725195 202.49114486 0.90121406 207.61287177 C0.88636782 220.38864155 0.88998221 233.16431022 0.90207737 245.9400738 C0.91200683 257.01973344 0.899072 268.099226 0.87514318 279.17885987 C0.85072389 290.57196845 0.84155056 301.9649773 0.8477959 313.35811961 C0.85116416 319.74787147 0.84875897 326.13748535 0.83154488 332.52721786 C0.81606035 338.53718603 0.82004842 344.54683566 0.83885002 350.55679131 C0.84253176 352.75857546 0.83943961 354.9603833 0.82896423 357.16214561 C0.81572441 360.17575818 0.82732886 363.18832086 0.84495544 366.20188904 C0.83535044 367.06611272 0.82574543 367.93033641 0.81584936 368.82074869 C0.9080746 376.52294676 2.85271359 383.97245595 8.40866089 389.55775452 C18.61707441 397.31264376 33.82742394 396.27058876 45.93722534 396.2784729 C47.42493446 396.28304366 48.9126423 396.28804443 50.40034866 396.29343647 C54.47543609 396.30696844 58.55051521 396.31442155 62.62561917 396.32086313 C67.02498419 396.32888887 71.42433206 396.34257912 75.82368469 396.35557556 C83.44156353 396.37730753 91.05944412 396.39546398 98.67733765 396.4111805 C109.69148466 396.43390903 120.70561265 396.4620477 131.71974349 396.49149977 C149.59016197 396.53913913 167.46058825 396.5824132 185.33102417 396.62294006 C202.68877773 396.66231361 220.04652438 396.70374428 237.40426636 396.74794006 C238.47449598 396.75066434 239.54472561 396.75338861 240.64738643 396.75619543 C246.01650302 396.76987522 251.38561951 396.78359543 256.75473595 396.79733574 C301.28519735 396.91124307 345.81567265 397.01726054 390.34616089 397.12025452 C390.34616089 437.71025452 390.34616089 478.30025452 390.34616089 520.12025452 C336.884002 520.18647814 283.42188201 520.24183701 229.95969379 520.2734505 C223.63791387 520.27720231 217.31613404 520.28108531 210.99435425 520.28504944 C209.73588196 520.28583637 208.47740967 520.2866233 207.18080186 520.28743408 C186.84428538 520.30046299 166.50779452 520.32410288 146.17129321 520.3517129 C125.28063484 520.37983725 104.38998982 520.39644559 83.49931329 520.40252 C70.62441097 520.4066219 57.74958109 520.4195442 44.87470108 520.44400392 C36.02775067 520.45994802 27.18083734 520.46463539 18.33387364 520.46075865 C13.24123184 520.45885051 8.14871602 520.46162851 3.05609703 520.47787094 C-78.50263176 520.7246752 -78.50263176 520.7246752 -106.27883911 494.51087952 C-125.00055982 475.66598959 -129.80621902 451.32520544 -129.80101013 425.58784485 C-129.80431355 424.10614036 -129.80804012 422.62443676 -129.81215161 421.14273429 C-129.82212562 417.08345183 -129.82588096 413.02418416 -129.82854092 408.9648912 C-129.83245775 404.58150724 -129.84203514 400.19813484 -129.85075378 395.8147583 C-129.87048037 385.23429395 -129.88058001 374.65382869 -129.88948157 364.07335055 C-129.89387111 359.08300059 -129.89923622 354.09265168 -129.90447044 349.10230255 C-129.92147965 332.49946437 -129.93597165 315.89662683 -129.94321918 299.29378128 C-129.94512888 294.98903147 -129.94704924 290.68428166 -129.94900513 286.37953186 C-129.94948887 285.30969015 -129.94997261 284.23984844 -129.95047101 283.13758728 C-129.95876325 265.82451638 -129.98408792 248.51151476 -130.0165858 231.19847408 C-130.04972416 213.39816753 -130.0676741 195.59789609 -130.07086343 177.79755855 C-130.07302236 167.81368254 -130.08168021 157.82990752 -130.1073246 147.84606171 C-130.12912445 139.33963483 -130.13703669 130.8333335 -130.12735782 122.32688186 C-130.12283973 117.99423027 -130.12455237 113.66183718 -130.14411926 109.32922173 C-130.27315397 79.0500452 -128.94696121 50.06945511 -106.84133911 26.80775452 C-78.91208174 0.19832485 -36.20993764 -0.07076743 0 0 Z " fill="#000000" transform="translate(2055.653839111328,1949.8797454833984)"/>
<path d="M0 0 C88.11 0 176.22 0 267 0 C267 41.91 267 83.82 267 127 C222.78 127 178.56 127 133 127 C133 260.98 133 394.96 133 533 C89.11 533 45.22 533 0 533 C0 357.11 0 181.22 0 0 Z " fill="#000000" transform="translate(1563,1951)"/>
<path d="M0 0 C88.11 0 176.22 0 267 0 C267 41.91 267 83.82 267 127 C222.78 127 178.56 127 133 127 C133 260.98 133 394.96 133 533 C89.11 533 45.22 533 0 533 C0 357.11 0 181.22 0 0 Z " fill="#000000" transform="translate(1563,928)"/>
<path d="M0 0 C16.6893491 -0.5861438 33.37532556 -1.02582798 50.07250309 -1.2953043 C57.82732224 -1.42380867 65.57572233 -1.59863242 73.32641602 -1.88598633 C80.08911728 -2.13658948 86.84717356 -2.29675403 93.61438841 -2.35221237 C97.19497749 -2.38461775 100.76229402 -2.45954039 104.33857918 -2.64325142 C122.33241153 -3.53220554 122.33241153 -3.53220554 130 0 C136.55310066 6.0308422 140.2154259 13.9694396 143.6913681 22.03772736 C145.41222112 25.93312056 147.51722645 29.50939919 149.74609375 33.12890625 C150.97890092 35.27209409 152.20951486 37.41654564 153.4375 39.5625 C154.08525391 40.68978516 154.73300781 41.81707031 155.40039062 42.97851562 C156.93572354 45.65113218 158.46898513 48.32490841 160 51 C162.92250343 47.51102366 165.2777512 43.98611791 167.50390625 40.01953125 C167.98898903 39.16194466 167.98898903 39.16194466 168.48387146 38.28703308 C169.51428298 36.46452002 170.5389452 34.63887144 171.5625 32.8125 C172.22152135 31.63840015 172.8810238 30.46457022 173.54101562 29.29101562 C173.8523003 28.73547658 174.16358498 28.17993753 174.48430252 27.60756397 C175.17363312 26.39687102 175.8761672 25.19353378 176.59579086 24.00059795 C178.67017603 20.53359678 180.37100134 17.15317839 181.80169678 13.37165833 C184.01051712 8.11777494 186.41170156 3.52952655 191 0 C199.64079608 -3.07379369 209.3214688 -2.15688775 218.36611533 -1.82509089 C221.97961679 -1.71178451 225.59344672 -1.70193597 229.20845032 -1.68063354 C236.03879895 -1.62490176 242.86389971 -1.47753386 249.6919468 -1.29634273 C257.47123587 -1.09443643 265.25078952 -0.99601108 273.03205049 -0.9058249 C289.02439638 -0.71817469 305.01151911 -0.40204148 321 0 C319.65815803 4.17087058 318.16690217 7.71581105 315.90234375 11.47265625 C315.27457031 12.52195312 314.64679687 13.57125 314 14.65234375 C313.319375 15.77769531 312.63875 16.90304687 311.9375 18.0625 C310.8502531 19.87540826 309.76520057 21.6896186 308.6802063 23.50387573 C307.92701992 24.7629981 307.17316505 26.0217208 306.41867065 27.28005981 C302.75589517 33.39203531 299.15245029 39.5380306 295.55764771 45.69015503 C289.09379416 56.75109032 282.5820174 67.78276776 276.04150391 78.79858398 C270.24314676 88.57191101 264.49325912 98.37324375 258.7578125 108.18359375 C258.09265625 109.32054687 257.4275 110.4575 256.7421875 111.62890625 C256.1632373 112.61963135 255.58428711 113.61035645 254.98779297 114.63110352 C254.00383545 116.29870728 254.00383545 116.29870728 253 118 C252.53857448 119.21928051 252.53857448 119.21928051 252.06782722 120.46319294 C250.69807129 123.56649683 249.43976748 125.62388664 247 128 C241.61081382 129.61167221 236.23361345 129.51367802 230.66015625 129.51611328 C228.97748502 129.55260598 227.29489702 129.59312552 225.6124115 129.63735962 C221.0477135 129.74268707 216.4847293 129.78267297 211.91894531 129.80429697 C209.06189297 129.8203159 206.20528329 129.84955941 203.34838867 129.88329697 C193.36631811 129.99976578 183.38555364 130.06014457 173.40283203 130.07275391 C164.1213077 130.08607429 154.84755229 130.22649987 145.56833172 130.42585957 C137.5839099 130.59131955 129.60204176 130.66331844 121.61591816 130.66482723 C116.85268776 130.66748034 112.0971798 130.70741227 107.33572388 130.84317398 C78.49871717 131.61486168 78.49871717 131.61486168 71.0632 125.64018822 C66.31605045 119.97561173 63.4908872 113.76587728 61.05262375 106.83788204 C59.611096 102.95151171 57.64203944 99.69733274 55.44140625 96.19140625 C54.79671387 95.08901611 54.15202148 93.98662598 53.48779297 92.85083008 C52.85244629 91.76568115 52.21709961 90.68053223 51.5625 89.5625 C51.214151 88.96746674 50.865802 88.37243347 50.50689697 87.7593689 C45.51860037 79.24306855 40.47158571 70.76458927 35.375 62.3125 C29.63877899 52.79787987 24.04273577 43.20971354 18.5168457 33.5715332 C13.72276674 25.21733725 8.83309249 16.92333416 3.85888672 8.67504883 C3.34986816 7.82322021 2.84084961 6.9713916 2.31640625 6.09375 C1.86724854 5.34802734 1.41809082 4.60230469 0.95532227 3.83398438 C0 2 0 2 0 0 Z " fill="#000000" transform="translate(2024,1762)"/>
<path d="M0 0 C3.28661288 4.38215051 3.35089275 4.95093591 2.8125 10.0625 C2.71582031 11.10535156 2.61914062 12.14820313 2.51953125 13.22265625 C2 16 2 16 0 19 C0 12.73 0 6.46 0 0 Z " fill="#000000" transform="translate(2416,1630)"/>
</svg>
